<svg xmlns="http://www.w3.org/2000/svg" width="254.929" height="79.998" viewBox="0 0 254.929 79.998">
  <g id="Group_298" data-name="Group 298" transform="translate(-1003.61 -248.898)">
    <g id="Group_285" data-name="Group 285" transform="translate(1054.61 248.898)">
      <rect id="Rectangle_783" data-name="Rectangle 783" width="203.929" height="70.998" transform="translate(0 0)" fill="none"/>
    </g>
    <g id="Group_286" data-name="Group 286" transform="translate(1023.897 293.552)">
      <path id="Path_4182" data-name="Path 4182" d="M1122.882,465.707l-1.028,13.552,1.028,1.11,1.028-1.11Z" transform="translate(-1121.854 -465.707)" fill="#b0b0af" fill-rule="evenodd"/>
    </g>
    <g id="Group_295" data-name="Group 295" transform="translate(1061.957 270.803)">
      <g id="Group_287" data-name="Group 287">
        <path id="Path_4183" data-name="Path 4183" d="M1378.109,372.038h-6.536l-9.663-16.967v16.967h-6.574V344.77h6.574l9.645,16.968V344.77h6.555Z" transform="translate(-1355.336 -344.77)" fill="#fff"/>
      </g>
      <g id="Group_288" data-name="Group 288" transform="translate(23.863)">
        <path id="Path_4184" data-name="Path 4184" d="M1511.328,360.464H1500.99v6.517H1513.2v5.057h-18.784V344.77h18.821v5.076H1500.99v5.749h10.338Z" transform="translate(-1494.417 -344.77)" fill="#fff"/>
      </g>
      <g id="Group_289" data-name="Group 289" transform="translate(40.14)">
        <path id="Path_4185" data-name="Path 4185" d="M1601.985,364.622l5.431-19.852h7.341l-9.177,27.268h-7.192l-9.1-27.268h7.285Z" transform="translate(-1589.287 -344.77)" fill="#fff"/>
      </g>
      <g id="Group_290" data-name="Group 290" transform="translate(64.527)">
        <path id="Path_4186" data-name="Path 4186" d="M1731.426,372.038V344.77h9.795q5.262,0,8.007,1.93a6.419,6.419,0,0,1,2.743,5.6,6.488,6.488,0,0,1-.974,3.615,5.676,5.676,0,0,1-2.865,2.21,5.743,5.743,0,0,1,3.277,2.1,6.1,6.1,0,0,1,1.142,3.745,7.221,7.221,0,0,1-2.537,6.021q-2.538,2.013-7.519,2.051Zm6.573-15.9h3.427a4.871,4.871,0,0,0,3.071-.789,2.8,2.8,0,0,0,.918-2.272,2.94,2.94,0,0,0-.993-2.489,5.311,5.311,0,0,0-3.2-.761H1738Zm0,4.307v6.535h4.308a4.1,4.1,0,0,0,2.734-.814,2.849,2.849,0,0,0,.955-2.294q0-3.408-3.39-3.427Z" transform="translate(-1731.426 -344.77)" fill="#b0b0af"/>
      </g>
      <g id="Group_291" data-name="Group 291" transform="translate(86.647 7.347)">
        <rect id="Rectangle_784" data-name="Rectangle 784" width="6.555" height="19.921" fill="#b0b0af"/>
      </g>
      <g id="Group_292" data-name="Group 292" transform="translate(86.647 0)">
        <rect id="Rectangle_785" data-name="Rectangle 785" width="6.555" height="5.417" fill="#b0b0af"/>
      </g>
      <g id="Group_293" data-name="Group 293" transform="translate(92.924)">
        <path id="Path_4187" data-name="Path 4187" d="M1914.541,366.944h-9.008l-1.573,5.094h-7.023l10-27.268h6.18l10.076,27.268h-7.061Zm-7.435-5.076h5.862l-2.94-9.457Z" transform="translate(-1896.937 -344.77)" fill="#b0b0af"/>
      </g>
      <g id="Group_294" data-name="Group 294" transform="translate(118.097)">
        <path id="Path_4188" data-name="Path 4188" d="M2043.658,372.038V344.77h8.783a12.921,12.921,0,0,1,6.5,1.639,11.524,11.524,0,0,1,4.5,4.626,13.974,13.974,0,0,1,1.639,6.7v1.255a14.038,14.038,0,0,1-1.583,6.714,11.566,11.566,0,0,1-4.458,4.645,12.632,12.632,0,0,1-6.415,1.695Zm6.574-22.192v17.135h2.284a5.113,5.113,0,0,0,4.345-2.013q1.517-2.013,1.517-5.984V357.8q0-3.951-1.517-5.955a5.2,5.2,0,0,0-4.42-2Z" transform="translate(-2043.658 -344.77)" fill="#b0b0af"/>
      </g>
    </g>
    <g id="Group_296" data-name="Group 296" transform="translate(1061.957 305.127)">
      <path id="Path_4189" data-name="Path 4189" d="M1359.992,558.816h-1.049l-2.557-3.706v3.706h-1.049v-5.492h1.049l2.557,3.692v-3.692h1.049Z" transform="translate(-1355.336 -551.866)" fill="#fff"/>
      <path id="Path_4190" data-name="Path 4190" d="M1389.321,565.712c0,.087,0,.153,0,.2a.725.725,0,0,1-.012.117h-2.454a1.069,1.069,0,0,0,.291.553.688.688,0,0,0,.494.212.8.8,0,0,0,.432-.121.749.749,0,0,0,.29-.331l.818.409a1.5,1.5,0,0,1-.615.649,1.92,1.92,0,0,1-.953.225,1.654,1.654,0,0,1-1.279-.525,1.968,1.968,0,0,1-.482-1.385,1.925,1.925,0,0,1,.5-1.351,1.695,1.695,0,0,1,2.486-.011A1.958,1.958,0,0,1,1389.321,565.712Zm-1.01-.313a1.076,1.076,0,0,0-.262-.555.638.638,0,0,0-.937,0,1.057,1.057,0,0,0-.26.551Z" transform="translate(-1380.615 -560.555)" fill="#fff"/>
      <path id="Path_4191" data-name="Path 4191" d="M1409.357,564.478l-1.305,3.578h-1.014l-1.309-3.578h1.128l.686,2.28.683-2.28Z" transform="translate(-1397.083 -561.106)" fill="#fff"/>
      <path id="Path_4192" data-name="Path 4192" d="M1427.844,566.573a.709.709,0,0,0,.276.226.823.823,0,0,0,.371.094.564.564,0,0,0,.336-.089.281.281,0,0,0,.123-.239.349.349,0,0,0-.153-.284,2.061,2.061,0,0,0-.5-.249,1.7,1.7,0,0,1-.715-.443,1.02,1.02,0,0,1-.214-.678.974.974,0,0,1,.372-.8,1.6,1.6,0,0,1,1.023-.3,1.649,1.649,0,0,1,.6.1,1.189,1.189,0,0,1,.451.308l-.476.576a.968.968,0,0,0-.278-.2.734.734,0,0,0-.3-.058.559.559,0,0,0-.328.083.254.254,0,0,0-.117.215.39.39,0,0,0,.15.313,1.6,1.6,0,0,0,.5.242,1.568,1.568,0,0,1,.713.438.977.977,0,0,1,.247.661,1,1,0,0,1-.38.829,1.652,1.652,0,0,1-1.053.3,1.878,1.878,0,0,1-.743-.141,1.126,1.126,0,0,1-.5-.386Zm1.487,1.53-1.049,1.152-.388-.3.839-1.3Z" transform="translate(-1414.908 -560.555)" fill="#fff"/>
      <path id="Path_4193" data-name="Path 4193" d="M1448.046,565.712c0,.087,0,.153,0,.2a.7.7,0,0,1-.013.117h-2.454a1.067,1.067,0,0,0,.292.553.687.687,0,0,0,.494.212.8.8,0,0,0,.432-.121.749.749,0,0,0,.29-.331l.818.409a1.5,1.5,0,0,1-.615.649,1.919,1.919,0,0,1-.953.225,1.653,1.653,0,0,1-1.279-.525,1.968,1.968,0,0,1-.482-1.385,1.926,1.926,0,0,1,.5-1.351,1.695,1.695,0,0,1,2.486-.011A1.957,1.957,0,0,1,1448.046,565.712Zm-1.01-.313a1.076,1.076,0,0,0-.262-.555.638.638,0,0,0-.937,0,1.054,1.054,0,0,0-.26.551Z" transform="translate(-1429.264 -560.555)" fill="#fff"/>
      <path id="Path_4194" data-name="Path 4194" d="M1470.663,556.309h-1.014V554.2a1.085,1.085,0,0,0-.123-.588.438.438,0,0,0-.393-.183.565.565,0,0,0-.484.277,1.345,1.345,0,0,0-.189.765v1.835h-1.021V550.3h1.021v2.849a.95.95,0,0,1,.425-.395,1.5,1.5,0,0,1,.66-.135,1.017,1.017,0,0,1,.843.341,1.651,1.651,0,0,1,.274,1.042Z" transform="translate(-1448.207 -549.359)" fill="#fff"/>
      <path id="Path_4195" data-name="Path 4195" d="M1491.384,553.231a.589.589,0,1,1-.172-.418A.567.567,0,0,1,1491.384,553.231Zm-.082,5.018h-1.017v-3.578h1.017Z" transform="translate(-1467.063 -551.299)" fill="#fff"/>
      <path id="Path_4196" data-name="Path 4196" d="M1503.488,563.87l-.182,1.056a.954.954,0,0,0-.18-.073.658.658,0,0,0-.176-.023.722.722,0,0,0-.622.276,1.435,1.435,0,0,0-.2.848V567.5H1501.1v-3.578h1.021v.75a1.376,1.376,0,0,1,.372-.672,1.036,1.036,0,0,1,.678-.192.905.905,0,0,1,.164.016A.747.747,0,0,1,1503.488,563.87Z" transform="translate(-1476.095 -560.555)" fill="#fff"/>
      <path id="Path_4197" data-name="Path 4197" d="M1517.424,556.309H1516.4V550.3h1.021Z" transform="translate(-1488.768 -549.359)" fill="#fff"/>
      <path id="Path_4198" data-name="Path 4198" d="M1527.556,553.231a.589.589,0,1,1-.173-.418A.569.569,0,0,1,1527.556,553.231Zm-.082,5.018h-1.017v-3.578h1.017Z" transform="translate(-1497.029 -551.299)" fill="#fff"/>
      <path id="Path_4199" data-name="Path 4199" d="M1553.357,557.176a1.468,1.468,0,0,1-.526,1.222,2.457,2.457,0,0,1-1.551.418h-1.295v-5.492h1.149a2.366,2.366,0,0,1,1.435.352,1.292,1.292,0,0,1,.461,1.1,1.124,1.124,0,0,1-.236.736,1.069,1.069,0,0,1-.653.366,1.326,1.326,0,0,1,.859.418A1.229,1.229,0,0,1,1553.357,557.176Zm-1.362-2.323a.542.542,0,0,0-.2-.476,1.17,1.17,0,0,0-.66-.143h-.057v1.26h.057a1.053,1.053,0,0,0,.64-.166A.556.556,0,0,0,1551.994,554.853Zm.249,2.266a.688.688,0,0,0-.229-.556.994.994,0,0,0-.66-.194h-.277v1.537h.277a.983.983,0,0,0,.667-.2A.745.745,0,0,0,1552.243,557.119Z" transform="translate(-1516.589 -551.866)" fill="#fff"/>
      <path id="Path_4200" data-name="Path 4200" d="M1576.151,559.564a1.877,1.877,0,0,1-.384,1.307,1.576,1.576,0,0,1-1.209.414,1.615,1.615,0,0,1-1.232-.4,1.913,1.913,0,0,1-.372-1.32V557.59h1.021v2.084a.831.831,0,0,0,.142.535.538.538,0,0,0,.441.173.521.521,0,0,0,.428-.182.815.815,0,0,0,.148-.526V557.59h1.017Zm-1.8-2.941a.456.456,0,0,1-.13.334.442.442,0,0,1-.329.132.461.461,0,0,1-.466-.466.438.438,0,0,1,.14-.32.45.45,0,0,1,.326-.139.455.455,0,0,1,.459.459Zm1.334,0a.456.456,0,0,1-.13.334.442.442,0,0,1-.329.132.461.461,0,0,1-.466-.466.437.437,0,0,1,.14-.32.449.449,0,0,1,.325-.139.455.455,0,0,1,.459.459Z" transform="translate(-1535.616 -554.219)" fill="#fff"/>
      <path id="Path_4201" data-name="Path 4201" d="M1598.139,563.87l-.181,1.056a.959.959,0,0,0-.18-.073.658.658,0,0,0-.176-.023.723.723,0,0,0-.623.276,1.438,1.438,0,0,0-.2.848V567.5h-1.021v-3.578h1.021v.75a1.376,1.376,0,0,1,.372-.672,1.035,1.035,0,0,1,.678-.192.9.9,0,0,1,.164.016A.744.744,0,0,1,1598.139,563.87Z" transform="translate(-1554.506 -560.555)" fill="#fff"/>
      <path id="Path_4202" data-name="Path 4202" d="M1613.061,565.712a1.885,1.885,0,0,1-.528,1.36,1.765,1.765,0,0,1-1.328.55,1.79,1.79,0,0,1-1.337-.547,2.009,2.009,0,0,1,0-2.723,1.8,1.8,0,0,1,1.341-.539,1.771,1.771,0,0,1,1.328.546A1.871,1.871,0,0,1,1613.061,565.712Zm-1.031,0a1.065,1.065,0,0,0-.24-.711.769.769,0,0,0-1.19-.005,1.236,1.236,0,0,0,0,1.442.786.786,0,0,0,1.2,0A1.117,1.117,0,0,0,1612.03,565.712Z" transform="translate(-1565.755 -560.555)" fill="#fff"/>
      <path id="Path_4203" data-name="Path 4203" d="M1637.378,556.309h-1.252l-1.167-1.892v1.892h-1.021V550.3h1.021v4.023l1.131-1.59h1.216l-1.234,1.59Z" transform="translate(-1586.138 -549.359)" fill="#fff"/>
      <path id="Path_4204" data-name="Path 4204" d="M1658.647,563.87l-.181,1.056a.966.966,0,0,0-.18-.073.658.658,0,0,0-.176-.023.721.721,0,0,0-.622.276,1.434,1.434,0,0,0-.2.848V567.5h-1.021v-3.578h1.021v.75a1.372,1.372,0,0,1,.372-.672,1.034,1.034,0,0,1,.678-.192.9.9,0,0,1,.164.016A.741.741,0,0,1,1658.647,563.87Z" transform="translate(-1604.633 -560.555)" fill="#fff"/>
      <path id="Path_4205" data-name="Path 4205" d="M1673.546,567.5h-1.021V567.1a1.066,1.066,0,0,1-.4.393,1.15,1.15,0,0,1-.56.133,1.481,1.481,0,0,1-1.188-.533,2.3,2.3,0,0,1,0-2.74,1.478,1.478,0,0,1,1.188-.536,1.219,1.219,0,0,1,.591.137.84.84,0,0,1,.37.386v-.409h1.021Zm-1.021-1.785a1.122,1.122,0,0,0-.226-.713.684.684,0,0,0-.56-.29.677.677,0,0,0-.557.288,1.262,1.262,0,0,0,0,1.428.676.676,0,0,0,.558.286.686.686,0,0,0,.562-.288A1.124,1.124,0,0,0,1672.525,565.72Z" transform="translate(-1615.95 -560.555)" fill="#fff"/>
      <path id="Path_4206" data-name="Path 4206" d="M1695.481,559.735h-.5v2.739h-1.021v-2.739h-.4V558.9h.4V557.74h1.021V558.9h.5Z" transform="translate(-1635.527 -555.525)" fill="#fff"/>
      <path id="Path_4207" data-name="Path 4207" d="M1707.906,556.309h-1.021V550.3h1.021Z" transform="translate(-1646.569 -549.359)" fill="#fff"/>
      <path id="Path_4208" data-name="Path 4208" d="M1719.295,567.5h-1.021V567.1a1.065,1.065,0,0,1-.4.393,1.149,1.149,0,0,1-.56.133,1.481,1.481,0,0,1-1.188-.533,2.3,2.3,0,0,1,0-2.74,1.478,1.478,0,0,1,1.188-.536,1.217,1.217,0,0,1,.59.137.838.838,0,0,1,.37.386v-.409h1.021Zm-1.021-1.785a1.125,1.125,0,0,0-.226-.713.684.684,0,0,0-.56-.29.675.675,0,0,0-.556.288,1.262,1.262,0,0,0,0,1.428.679.679,0,0,0,.559.286.685.685,0,0,0,.562-.288A1.124,1.124,0,0,0,1718.274,565.72Z" transform="translate(-1653.85 -560.555)" fill="#fff"/>
      <path id="Path_4209" data-name="Path 4209" d="M1743.389,563.87l-.182,1.056a.962.962,0,0,0-.179-.073.659.659,0,0,0-.176-.023.722.722,0,0,0-.622.276,1.433,1.433,0,0,0-.2.848V567.5h-1.021v-3.578h1.021v.75a1.374,1.374,0,0,1,.372-.672,1.035,1.035,0,0,1,.678-.192.9.9,0,0,1,.164.016A.744.744,0,0,1,1743.389,563.87Z" transform="translate(-1674.836 -560.555)" fill="#fff"/>
      <path id="Path_4210" data-name="Path 4210" d="M1770.171,564.478l-1.305,3.578h-1.014l-1.309-3.578h1.128l.686,2.28.683-2.28Z" transform="translate(-1695.991 -561.106)" fill="#fff"/>
      <path id="Path_4211" data-name="Path 4211" d="M1790.952,565.712c0,.087,0,.153,0,.2a.686.686,0,0,1-.012.117h-2.453a1.065,1.065,0,0,0,.291.553.688.688,0,0,0,.494.212.8.8,0,0,0,.432-.121.752.752,0,0,0,.29-.331l.818.409a1.5,1.5,0,0,1-.615.649,1.919,1.919,0,0,1-.953.225,1.654,1.654,0,0,1-1.279-.525,1.969,1.969,0,0,1-.482-1.385,1.927,1.927,0,0,1,.5-1.351,1.7,1.7,0,0,1,2.486-.011A1.958,1.958,0,0,1,1790.952,565.712Zm-1.01-.313a1.076,1.076,0,0,0-.261-.555.638.638,0,0,0-.937,0,1.052,1.052,0,0,0-.259.551Z" transform="translate(-1713.336 -560.555)" fill="#fff"/>
      <path id="Path_4212" data-name="Path 4212" d="M1823.874,551.776H1822.8v-5.492h1.071Zm-.053-6.462a.464.464,0,0,1-.139.343.476.476,0,0,1-.349.137.485.485,0,0,1-.48-.48.469.469,0,0,1,.147-.338.457.457,0,0,1,.333-.149.5.5,0,0,1,.487.487Z" transform="translate(-1742.598 -544.827)" fill="#fff"/>
      <path id="Path_4213" data-name="Path 4213" d="M1832.481,566.573a.709.709,0,0,0,.276.226.821.821,0,0,0,.371.094.561.561,0,0,0,.336-.089.281.281,0,0,0,.123-.239.349.349,0,0,0-.153-.284,2.058,2.058,0,0,0-.5-.249,1.7,1.7,0,0,1-.714-.443,1.019,1.019,0,0,1-.214-.678.973.973,0,0,1,.372-.8,1.6,1.6,0,0,1,1.022-.3,1.65,1.65,0,0,1,.6.1,1.187,1.187,0,0,1,.451.308l-.477.576a.971.971,0,0,0-.277-.2.737.737,0,0,0-.3-.058.558.558,0,0,0-.327.083.254.254,0,0,0-.118.215.389.389,0,0,0,.15.313,1.6,1.6,0,0,0,.5.242,1.567,1.567,0,0,1,.713.438.978.978,0,0,1,.247.661,1,1,0,0,1-.38.829,1.653,1.653,0,0,1-1.053.3,1.877,1.877,0,0,1-.743-.141,1.127,1.127,0,0,1-.5-.386Zm1.486,1.53-1.049,1.152-.388-.3.84-1.3Z" transform="translate(-1750.12 -560.555)" fill="#fff"/>
      <path id="Path_4214" data-name="Path 4214" d="M1853.083,567.5h-1.021V567.1a1.062,1.062,0,0,1-.4.393,1.148,1.148,0,0,1-.56.133,1.48,1.48,0,0,1-1.188-.533,2.3,2.3,0,0,1,0-2.74,1.477,1.477,0,0,1,1.188-.536,1.221,1.221,0,0,1,.591.137.84.84,0,0,1,.37.386v-.409h1.021Zm-1.021-1.785a1.123,1.123,0,0,0-.226-.713.685.685,0,0,0-.56-.29.677.677,0,0,0-.557.288,1.261,1.261,0,0,0,0,1.428.677.677,0,0,0,.558.286.684.684,0,0,0,.562-.288A1.121,1.121,0,0,0,1852.062,565.72Z" transform="translate(-1764.683 -560.555)" fill="#fff"/>
      <path id="Path_4215" data-name="Path 4215" d="M1877.067,556.309h-1.021V555.9a1.067,1.067,0,0,1-.4.393,1.152,1.152,0,0,1-.56.133,1.482,1.482,0,0,1-1.188-.533,2.306,2.306,0,0,1,0-2.74,1.478,1.478,0,0,1,1.188-.536,1.217,1.217,0,0,1,.59.137.838.838,0,0,1,.37.386V550.3h1.021Zm-1.021-1.785a1.123,1.123,0,0,0-.226-.713.684.684,0,0,0-.56-.29.675.675,0,0,0-.556.288,1.262,1.262,0,0,0,0,1.428.679.679,0,0,0,.559.286.687.687,0,0,0,.563-.288A1.126,1.126,0,0,0,1876.046,554.523Z" transform="translate(-1784.552 -549.359)" fill="#fff"/>
      <path id="Path_4216" data-name="Path 4216" d="M1901.051,567.5h-1.021V567.1a1.069,1.069,0,0,1-.4.393,1.152,1.152,0,0,1-.56.133,1.481,1.481,0,0,1-1.188-.533,2.3,2.3,0,0,1,0-2.74,1.477,1.477,0,0,1,1.188-.536,1.216,1.216,0,0,1,.59.137.841.841,0,0,1,.37.386v-.409h1.021Zm-1.021-1.785a1.122,1.122,0,0,0-.226-.713.684.684,0,0,0-.56-.29.676.676,0,0,0-.556.288,1.262,1.262,0,0,0,0,1.428.678.678,0,0,0,.559.286.687.687,0,0,0,.563-.288A1.126,1.126,0,0,0,1900.03,565.72Z" transform="translate(-1804.421 -560.555)" fill="#fff"/>
      <path id="Path_4217" data-name="Path 4217" d="M1927.89,567.5h-1.01V565.4a1.3,1.3,0,0,0-.1-.608.369.369,0,0,0-.346-.164.49.49,0,0,0-.436.272,1.514,1.514,0,0,0-.162.77V567.5h-1.014V565.4a1.3,1.3,0,0,0-.1-.608.369.369,0,0,0-.346-.164.491.491,0,0,0-.436.272,1.517,1.517,0,0,0-.162.77V567.5h-1.021v-3.578h1.021v.416a.981.981,0,0,1,.4-.4,1.312,1.312,0,0,1,.612-.13,1.074,1.074,0,0,1,.6.153.856.856,0,0,1,.343.458,1.135,1.135,0,0,1,.459-.446,1.347,1.347,0,0,1,.654-.165.927.927,0,0,1,.8.331,1.774,1.774,0,0,1,.247,1.052Z" transform="translate(-1825.406 -560.555)" fill="#fff"/>
      <path id="Path_4218" data-name="Path 4218" d="M1957.82,556.309H1956.8V550.3h1.021Z" transform="translate(-1853.604 -549.359)" fill="#fff"/>
      <path id="Path_4219" data-name="Path 4219" d="M1969.209,567.5h-1.021V567.1a1.067,1.067,0,0,1-.4.393,1.152,1.152,0,0,1-.56.133,1.481,1.481,0,0,1-1.188-.533,2.3,2.3,0,0,1,0-2.74,1.477,1.477,0,0,1,1.188-.536,1.215,1.215,0,0,1,.59.137.837.837,0,0,1,.37.386v-.409h1.021Zm-1.021-1.785a1.123,1.123,0,0,0-.226-.713.685.685,0,0,0-.56-.29.676.676,0,0,0-.556.288,1.263,1.263,0,0,0,0,1.428.678.678,0,0,0,.558.286.686.686,0,0,0,.563-.288A1.127,1.127,0,0,0,1968.188,565.72Z" transform="translate(-1860.885 -560.555)" fill="#fff"/>
      <path id="Path_4220" data-name="Path 4220" d="M1993.3,563.87l-.182,1.056a.957.957,0,0,0-.18-.073.656.656,0,0,0-.176-.023.721.721,0,0,0-.622.276,1.433,1.433,0,0,0-.2.848V567.5h-1.021v-3.578h1.021v.75a1.374,1.374,0,0,1,.371-.672,1.037,1.037,0,0,1,.678-.192.9.9,0,0,1,.164.016A.739.739,0,0,1,1993.3,563.87Z" transform="translate(-1881.87 -560.555)" fill="#fff"/>
      <path id="Path_4221" data-name="Path 4221" d="M2007.835,568.056h-1.017v-3.578h1.017Z" transform="translate(-1895.041 -561.106)" fill="#fff"/>
      <path id="Path_4222" data-name="Path 4222" d="M2033.643,556.077a2.618,2.618,0,0,1-.775,2.02,3.074,3.074,0,0,1-2.17.718h-1.181v-5.492h1.1a3.247,3.247,0,0,1,2.248.706A2.616,2.616,0,0,1,2033.643,556.077Zm-1.116-.007a1.874,1.874,0,0,0-.441-1.325,1.6,1.6,0,0,0-1.235-.475h-.263v3.6h.263a1.61,1.61,0,0,0,1.233-.471A1.868,1.868,0,0,0,2032.527,556.07Z" transform="translate(-1913.846 -551.866)" fill="#fff"/>
      <path id="Path_4223" data-name="Path 4223" d="M2058.818,565.712c0,.087,0,.153,0,.2a.652.652,0,0,1-.012.117h-2.454a1.061,1.061,0,0,0,.292.553.687.687,0,0,0,.494.212.805.805,0,0,0,.433-.121.754.754,0,0,0,.289-.331l.818.409a1.5,1.5,0,0,1-.615.649,1.924,1.924,0,0,1-.954.225,1.654,1.654,0,0,1-1.279-.525,1.968,1.968,0,0,1-.482-1.385,1.924,1.924,0,0,1,.5-1.351,1.695,1.695,0,0,1,2.486-.011A1.957,1.957,0,0,1,2058.818,565.712Zm-1.01-.313a1.07,1.07,0,0,0-.261-.555.639.639,0,0,0-.938,0,1.053,1.053,0,0,0-.259.551Z" transform="translate(-1935.244 -560.555)" fill="#fff"/>
      <path id="Path_4224" data-name="Path 4224" d="M2080.595,563.87l-.182,1.056a.922.922,0,0,0-.179-.073.658.658,0,0,0-.176-.023.721.721,0,0,0-.622.276,1.431,1.431,0,0,0-.2.848V567.5h-1.021v-3.578h1.021v.75a1.37,1.37,0,0,1,.372-.672,1.032,1.032,0,0,1,.677-.192.9.9,0,0,1,.164.016A.735.735,0,0,1,2080.595,563.87Z" transform="translate(-1954.186 -560.555)" fill="#fff"/>
      <path id="Path_4225" data-name="Path 4225" d="M2096.73,567.5h-1.013V565.4a1.086,1.086,0,0,0-.123-.588.438.438,0,0,0-.393-.183.564.564,0,0,0-.483.277,1.343,1.343,0,0,0-.189.765V567.5h-1.021v-3.578h1.021v.416a.949.949,0,0,1,.425-.395,1.5,1.5,0,0,1,.66-.135.987.987,0,0,1,.834.368,1.767,1.767,0,0,1,.282,1.087Z" transform="translate(-1966.857 -560.555)" fill="#fff"/>
      <path id="Path_4226" data-name="Path 4226" d="M2118.561,565.712c0,.087,0,.153,0,.2a.7.7,0,0,1-.012.117h-2.455a1.066,1.066,0,0,0,.292.553.688.688,0,0,0,.495.212.8.8,0,0,0,.432-.121.753.753,0,0,0,.29-.331l.818.409a1.508,1.508,0,0,1-.615.649,1.922,1.922,0,0,1-.953.225,1.654,1.654,0,0,1-1.279-.525,1.969,1.969,0,0,1-.481-1.385,1.924,1.924,0,0,1,.5-1.351,1.695,1.695,0,0,1,2.486-.011A1.957,1.957,0,0,1,2118.561,565.712Zm-1.011-.313a1.072,1.072,0,0,0-.261-.555.639.639,0,0,0-.937,0,1.055,1.055,0,0,0-.259.551Z" transform="translate(-1984.737 -560.555)" fill="#fff"/>
      <path id="Path_4227" data-name="Path 4227" d="M2140.226,560.087a1.876,1.876,0,0,1-.416,1.355,1.8,1.8,0,0,1-1.327.423,2.137,2.137,0,0,1-1.3-.349,1.124,1.124,0,0,1-.466-.949h1.038a.346.346,0,0,0,.2.307,1.056,1.056,0,0,0,.527.116.681.681,0,0,0,.558-.2,1.093,1.093,0,0,0,.164-.681v-.619a1.064,1.064,0,0,1-.4.393,1.153,1.153,0,0,1-.56.133,1.479,1.479,0,0,1-1.188-.533,2.3,2.3,0,0,1,0-2.74,1.476,1.476,0,0,1,1.188-.536,1.218,1.218,0,0,1,.59.137.84.84,0,0,1,.37.386v-.409h1.021Zm-.576-5.281a1.375,1.375,0,0,1-.391.736,1.074,1.074,0,0,1-.729.235,1.132,1.132,0,0,1-.766-.256,1.121,1.121,0,0,1-.365-.714l.431-.175a.659.659,0,0,0,.244.388.733.733,0,0,0,.457.139.715.715,0,0,0,.45-.139.672.672,0,0,0,.24-.388Zm-.445,3.307a1.126,1.126,0,0,0-.226-.713.685.685,0,0,0-.561-.29.676.676,0,0,0-.556.288,1.263,1.263,0,0,0,0,1.428.677.677,0,0,0,.558.286.685.685,0,0,0,.562-.288A1.127,1.127,0,0,0,2139.2,558.113Z" transform="translate(-2002.56 -552.949)" fill="#fff"/>
      <path id="Path_4228" data-name="Path 4228" d="M2162.829,553.231a.589.589,0,1,1-.173-.418A.568.568,0,0,1,2162.829,553.231Zm-.082,5.018h-1.018v-3.578h1.018Z" transform="translate(-2023.306 -551.299)" fill="#fff"/>
    </g>
    <g id="Group_297" data-name="Group 297" transform="translate(1003.61 257.898)">
      <path id="Path_4229" data-name="Path 4229" d="M1057.367,262.355V257.9h-5.294c-6.994,3.44-16.748,15.375-4.578,17.644-3.581,9-7.95,17.211-11.471,26.272-2.415-2.52-2.972-6.9-5.181-9.621,6.215-2.088,11.313-14.686,1.85-16.651-8.052-1.672-21.354,6.437-19.241,16.281a3.728,3.728,0,0,0,3.33,3.33c-4.3,7.952-8.48,16.027-13.172,23.588V328.9h1.21c5.919-11.335,13.844-25.55,19.733-36.7-1.749.794-4.9,1.914-6.29,0-3.891-7.464,12.435-15.388,14.061-9.251,1.3,4.906-4.893,6.339-6.66,9.251,3.559,7.542,7.254,14.947,10.361,22.941,7.187-13.41,12.474-28.722,18.871-42.923-2.735.822-8.508,1.711-9.251-1.48C1047.42,265.808,1052.128,263.815,1057.367,262.355Z" transform="translate(-1003.61 -257.898)" fill="#fff"/>
    </g>
  </g>
</svg>
